<svg xmlns="http://www.w3.org/2000/svg" viewBox="0 0 223.2 431.01"><defs><style>.cls-1{fill:#bebebe;}</style></defs><title>strum-down</title><g id="Layer_2" data-name="Layer 2"><g id="Capa_1" data-name="Capa 1"><path class="cls-1" d="M210.38,293.78a33.12,33.12,0,0,0-42.4,4.64L157.9,308.5a48,48,0,0,0-8.64,11.84l-6.24,12V34.1A33.12,33.12,0,0,0,116.46.34a32,32,0,0,0-36.64,32V331.86l-4.32-9.44a48,48,0,0,0-9.44-13.6L55.5,298.26a33.12,33.12,0,0,0-42.4-4.64,32,32,0,0,0-4.16,48l80,80a32,32,0,0,0,45.25,0l0,0,80-80a32,32,0,0,0-3.84-47.84Z"/></g></g></svg>