<svg xmlns="http://www.w3.org/2000/svg" xmlns:xlink="http://www.w3.org/1999/xlink" viewBox="0 0 187.5 431.01"><defs><style>.cls-1,.cls-4{fill:none;}.cls-2{fill:#bebebe;}.cls-3{clip-path:url(#clip-path);}.cls-4{stroke:#bebebe;stroke-miterlimit:10;}.cls-5{clip-path:url(#clip-path-4);}.cls-6{clip-path:url(#clip-path-7);}.cls-7{clip-path:url(#clip-path-10);}.cls-8{clip-path:url(#clip-path-13);}.cls-9{clip-path:url(#clip-path-16);}.cls-10{clip-path:url(#clip-path-19);}.cls-11{clip-path:url(#clip-path-22);}</style><clipPath id="clip-path"><rect class="cls-1" x="149.39" y="364.54" width="37.92" height="42"/></clipPath><clipPath id="clip-path-4"><rect class="cls-1" x="149.39" y="316.27" width="37.92" height="42"/></clipPath><clipPath id="clip-path-7"><rect class="cls-1" x="149.39" y="267.99" width="37.92" height="42"/></clipPath><clipPath id="clip-path-10"><rect class="cls-1" x="149.39" y="219.72" width="37.92" height="42"/></clipPath><clipPath id="clip-path-13"><rect class="cls-1" x="149.39" y="171.45" width="37.92" height="42"/></clipPath><clipPath id="clip-path-16"><rect class="cls-1" x="149.39" y="123.17" width="37.92" height="42"/></clipPath><clipPath id="clip-path-19"><rect class="cls-1" x="149.39" y="74.9" width="37.92" height="42"/></clipPath><clipPath id="clip-path-22"><rect class="cls-1" x="149.39" y="26.62" width="37.92" height="42"/></clipPath></defs><title>strum-muted</title><g id="Layer_2" data-name="Layer 2"><g id="Capa_1" data-name="Capa 1"><path class="cls-2" d="M139.78,415.85a7.13,7.13,0,0,1,.45-.63,4.93,4.93,0,0,1,.42-.77c.33-1.14.68-2.27,1.1-3.4a32.68,32.68,0,0,0,2-7.68l-.74-71V34.1A33.12,33.12,0,0,0,116.46.34a32,32,0,0,0-36.64,32V331.86l-4.32-9.44a48,48,0,0,0-9.44-13.6L55.5,298.26a33.12,33.12,0,0,0-42.4-4.64,32,32,0,0,0-4.16,48l80,80a32,32,0,0,0,45.25,0l0,0,4.89-4.89A5.48,5.48,0,0,1,139.78,415.85Z"/><g class="cls-3"><path d="M185.59,397.95l-11-12.61,11-12.61a4.8,4.8,0,1,0-6.79-6.79L168.2,378.07l-10.61-12.12a4.8,4.8,0,1,0-6.79,6.79l11,12.61-11,12.61a4.8,4.8,0,0,0,6.79,6.79l10.61-12.12,10.61,12.12a4.8,4.8,0,1,0,6.79-6.79Zm0,0"/></g><g class="cls-3"><path class="cls-2" d="M185.59,397.95l-11-12.61,11-12.61a4.8,4.8,0,1,0-6.79-6.79L168.2,378.07l-10.61-12.12a4.8,4.8,0,1,0-6.79,6.79l11,12.61-11,12.61a4.8,4.8,0,0,0,6.79,6.79l10.61-12.12,10.61,12.12a4.8,4.8,0,1,0,6.79-6.79Zm0,0"/></g><g class="cls-3"><path class="cls-4" d="M185.59,397.95l-11-12.61,11-12.61a4.8,4.8,0,1,0-6.79-6.79L168.2,378.07l-10.61-12.12a4.8,4.8,0,1,0-6.79,6.79l11,12.61-11,12.61a4.8,4.8,0,0,0,6.79,6.79l10.61-12.12,10.61,12.12a4.8,4.8,0,1,0,6.79-6.79Zm0,0"/></g><g class="cls-5"><path d="M185.59,349.67l-11-12.61,11-12.61a4.8,4.8,0,1,0-6.79-6.79L168.2,329.8l-10.61-12.12a4.8,4.8,0,0,0-6.79,6.79l11,12.61-11,12.61a4.8,4.8,0,0,0,6.79,6.79l10.61-12.12,10.61,12.12a4.8,4.8,0,0,0,6.79-6.79Zm0,0"/></g><g class="cls-5"><path class="cls-2" d="M185.59,349.67l-11-12.61,11-12.61a4.8,4.8,0,1,0-6.79-6.79L168.2,329.8l-10.61-12.12a4.8,4.8,0,0,0-6.79,6.79l11,12.61-11,12.61a4.8,4.8,0,0,0,6.79,6.79l10.61-12.12,10.61,12.12a4.8,4.8,0,0,0,6.79-6.79Zm0,0"/></g><g class="cls-5"><path class="cls-4" d="M185.59,349.67l-11-12.61,11-12.61a4.8,4.8,0,1,0-6.79-6.79L168.2,329.8l-10.61-12.12a4.8,4.8,0,0,0-6.79,6.79l11,12.61-11,12.61a4.8,4.8,0,0,0,6.79,6.79l10.61-12.12,10.61,12.12a4.8,4.8,0,0,0,6.79-6.79Zm0,0"/></g><g class="cls-6"><path d="M185.59,301.4l-11-12.61,11-12.61a4.8,4.8,0,0,0-6.79-6.79L168.2,281.52,157.59,269.4a4.8,4.8,0,0,0-6.79,6.79l11,12.61-11,12.61a4.8,4.8,0,0,0,6.79,6.79l10.61-12.12,10.61,12.12a4.8,4.8,0,1,0,6.79-6.79Zm0,0"/></g><g class="cls-6"><path class="cls-2" d="M185.59,301.4l-11-12.61,11-12.61a4.8,4.8,0,0,0-6.79-6.79L168.2,281.52,157.59,269.4a4.8,4.8,0,0,0-6.79,6.79l11,12.61-11,12.61a4.8,4.8,0,0,0,6.79,6.79l10.61-12.12,10.61,12.12a4.8,4.8,0,1,0,6.79-6.79Zm0,0"/></g><g class="cls-6"><path class="cls-4" d="M185.59,301.4l-11-12.61,11-12.61a4.8,4.8,0,0,0-6.79-6.79L168.2,281.52,157.59,269.4a4.8,4.8,0,0,0-6.79,6.79l11,12.61-11,12.61a4.8,4.8,0,0,0,6.79,6.79l10.61-12.12,10.61,12.12a4.8,4.8,0,1,0,6.79-6.79Zm0,0"/></g><g class="cls-7"><path d="M185.59,253.13l-11-12.61,11-12.61a4.8,4.8,0,1,0-6.79-6.79L168.2,233.25l-10.61-12.12a4.8,4.8,0,0,0-6.79,6.79l11,12.61-11,12.61a4.8,4.8,0,0,0,6.79,6.79l10.61-12.12,10.61,12.12a4.8,4.8,0,1,0,6.79-6.79Zm0,0"/></g><g class="cls-7"><path class="cls-2" d="M185.59,253.13l-11-12.61,11-12.61a4.8,4.8,0,1,0-6.79-6.79L168.2,233.25l-10.61-12.12a4.8,4.8,0,0,0-6.79,6.79l11,12.61-11,12.61a4.8,4.8,0,0,0,6.79,6.79l10.61-12.12,10.61,12.12a4.8,4.8,0,1,0,6.79-6.79Zm0,0"/></g><g class="cls-7"><path class="cls-4" d="M185.59,253.13l-11-12.61,11-12.61a4.8,4.8,0,1,0-6.79-6.79L168.2,233.25l-10.61-12.12a4.8,4.8,0,0,0-6.79,6.79l11,12.61-11,12.61a4.8,4.8,0,0,0,6.79,6.79l10.61-12.12,10.61,12.12a4.8,4.8,0,1,0,6.79-6.79Zm0,0"/></g><g class="cls-8"><path d="M185.59,204.85l-11-12.61,11-12.61a4.8,4.8,0,0,0-6.79-6.79L168.2,185l-10.61-12.12a4.8,4.8,0,0,0-6.79,6.79l11,12.61-11,12.61a4.8,4.8,0,0,0,6.79,6.79l10.61-12.12,10.61,12.12a4.8,4.8,0,1,0,6.79-6.79Zm0,0"/></g><g class="cls-8"><path class="cls-2" d="M185.59,204.85l-11-12.61,11-12.61a4.8,4.8,0,0,0-6.79-6.79L168.2,185l-10.61-12.12a4.8,4.8,0,0,0-6.79,6.79l11,12.61-11,12.61a4.8,4.8,0,0,0,6.79,6.79l10.61-12.12,10.61,12.12a4.8,4.8,0,1,0,6.79-6.79Zm0,0"/></g><g class="cls-8"><path class="cls-4" d="M185.59,204.85l-11-12.61,11-12.61a4.8,4.8,0,0,0-6.79-6.79L168.2,185l-10.61-12.12a4.8,4.8,0,0,0-6.79,6.79l11,12.61-11,12.61a4.8,4.8,0,0,0,6.79,6.79l10.61-12.12,10.61,12.12a4.8,4.8,0,1,0,6.79-6.79Zm0,0"/></g><g class="cls-9"><path d="M185.59,156.58l-11-12.61,11-12.61a4.8,4.8,0,1,0-6.79-6.79L168.2,136.7l-10.61-12.12a4.8,4.8,0,0,0-6.79,6.79l11,12.61-11,12.61a4.8,4.8,0,0,0,6.79,6.79l10.61-12.12,10.61,12.12a4.8,4.8,0,1,0,6.79-6.79Zm0,0"/></g><g class="cls-9"><path class="cls-2" d="M185.59,156.58l-11-12.61,11-12.61a4.8,4.8,0,1,0-6.79-6.79L168.2,136.7l-10.61-12.12a4.8,4.8,0,0,0-6.79,6.79l11,12.61-11,12.61a4.8,4.8,0,0,0,6.79,6.79l10.61-12.12,10.61,12.12a4.8,4.8,0,1,0,6.79-6.79Zm0,0"/></g><g class="cls-9"><path class="cls-4" d="M185.59,156.58l-11-12.61,11-12.61a4.8,4.8,0,1,0-6.79-6.79L168.2,136.7l-10.61-12.12a4.8,4.8,0,0,0-6.79,6.79l11,12.61-11,12.61a4.8,4.8,0,0,0,6.79,6.79l10.61-12.12,10.61,12.12a4.8,4.8,0,1,0,6.79-6.79Zm0,0"/></g><g class="cls-10"><path d="M185.59,108.3l-11-12.61,11-12.61a4.8,4.8,0,1,0-6.79-6.79L168.2,88.43,157.59,76.3a4.8,4.8,0,0,0-6.79,6.79l11,12.61-11,12.61a4.8,4.8,0,0,0,6.79,6.79L168.2,103l10.61,12.12a4.8,4.8,0,1,0,6.79-6.79Zm0,0"/></g><g class="cls-10"><path class="cls-2" d="M185.59,108.3l-11-12.61,11-12.61a4.8,4.8,0,1,0-6.79-6.79L168.2,88.43,157.59,76.3a4.8,4.8,0,0,0-6.79,6.79l11,12.61-11,12.61a4.8,4.8,0,0,0,6.79,6.79L168.2,103l10.61,12.12a4.8,4.8,0,1,0,6.79-6.79Zm0,0"/></g><g class="cls-10"><path class="cls-4" d="M185.59,108.3l-11-12.61,11-12.61a4.8,4.8,0,1,0-6.79-6.79L168.2,88.43,157.59,76.3a4.8,4.8,0,0,0-6.79,6.79l11,12.61-11,12.61a4.8,4.8,0,0,0,6.79,6.79L168.2,103l10.61,12.12a4.8,4.8,0,1,0,6.79-6.79Zm0,0"/></g><g class="cls-11"><path d="M185.59,60l-11-12.61,11-12.61A4.8,4.8,0,1,0,178.8,28L168.2,40.15,157.59,28a4.8,4.8,0,0,0-6.79,6.79l11,12.61L150.8,60a4.8,4.8,0,0,0,6.79,6.79L168.2,54.7,178.8,66.82A4.8,4.8,0,1,0,185.59,60Zm0,0"/></g><g class="cls-11"><path class="cls-2" d="M185.59,60l-11-12.61,11-12.61A4.8,4.8,0,1,0,178.8,28L168.2,40.15,157.59,28a4.8,4.8,0,0,0-6.79,6.79l11,12.61L150.8,60a4.8,4.8,0,0,0,6.79,6.79L168.2,54.7,178.8,66.82A4.8,4.8,0,1,0,185.59,60Zm0,0"/></g><g class="cls-11"><path class="cls-4" d="M185.59,60l-11-12.61,11-12.61A4.8,4.8,0,1,0,178.8,28L168.2,40.15,157.59,28a4.8,4.8,0,0,0-6.79,6.79l11,12.61L150.8,60a4.8,4.8,0,0,0,6.79,6.79L168.2,54.7,178.8,66.82A4.8,4.8,0,1,0,185.59,60Zm0,0"/></g></g></g></svg>