<svg xmlns="http://www.w3.org/2000/svg" viewBox="0 0 224.7 433"><defs><style>.cls-1{fill:#bebebe;}</style></defs><title>strum-up</title><g id="Layer_2" data-name="Layer 2"><g id="Capa_1" data-name="Capa 1"><path class="cls-1" d="M135.53,9.39a32,32,0,0,0-45.25,0l0,0-80,80a33.12,33.12,0,0,0-4.64,42.4,32,32,0,0,0,48,4.16l10.88-10.88A48,48,0,0,0,76,106.51l4.32-9.92V398.83a33.12,33.12,0,0,0,26.88,33.76,32,32,0,0,0,37.12-32v-304l3.2,9.12a48,48,0,0,0,11.36,17.92l11.52,11.52a32,32,0,0,0,45.25,0q.93-.93,1.79-1.94a33.28,33.28,0,0,0-3-44.8Z"/></g></g></svg>